<?xml version="1.0" standalone="no"?>
<!DOCTYPE svg PUBLIC "-//W3C//DTD SVG 20010904//EN"
 "http://www.w3.org/TR/2001/REC-SVG-20010904/DTD/svg10.dtd">
<svg version="1.0" xmlns="http://www.w3.org/2000/svg"
 width="128.000000pt" height="128.000000pt" viewBox="0 0 128.000000 128.000000"
 preserveAspectRatio="xMidYMid meet">

<g transform="translate(0.000000,128.000000) scale(0.100000,-0.100000)"
fill="#000000" stroke="none">
<path d="M700 1015 l0 -265 -110 0 c-168 0 -265 -43 -345 -151 -142 -193 -70
-464 150 -566 52 -24 73 -28 150 -28 78 0 98 4 150 28 33 16 70 38 83 50 22
21 24 21 50 4 78 -49 156 -80 218 -85 l64 -5 0 111 0 111 -44 6 c-62 10 -104
39 -126 88 -18 39 -20 70 -20 505 l0 462 -110 0 -110 0 0 -265z m150 -252 c0
-487 0 -482 70 -550 29 -29 49 -40 103 -57 12 -4 17 -16 17 -42 0 -36 -1 -36
-32 -30 -56 11 -115 45 -158 92 l-41 45 -38 -43 c-57 -64 -119 -92 -216 -96
-75 -4 -84 -2 -145 30 -206 107 -221 384 -27 515 61 41 122 53 267 53 l120 0
0 260 0 260 40 0 40 0 0 -437z"/>
<path d="M455 581 c-147 -67 -181 -250 -66 -361 91 -89 213 -93 303 -12 67 60
78 95 78 255 l0 137 -137 0 c-112 0 -145 -4 -178 -19z m245 -138 c0 -105 -22
-162 -72 -193 -42 -25 -119 -27 -160 -2 -67 39 -91 135 -52 203 31 55 91 79
196 79 l88 0 0 -87z"/>
</g>
</svg>
