<svg id="Lager_1" data-name="Lager 1" xmlns="http://www.w3.org/2000/svg" viewBox="0 0 660.1 76.2"><path d="M0,74.5c3.2-6.2,4-9.7,4-17.9v-37C4,11.3,3.2,7.9,0,1.7V1.5H23.6c21.8,0,28.3,9.5,28.3,20.2,0,13.3-10.3,23-29.8,23H15.5V56.6c0,8.3.7,11.7,4,17.9v.2H0ZM15.5,3.7v39h6.2c13.3,0,18.6-10.1,18.6-20.8,0-14.5-8.2-18.4-18.4-18.4C20.5,3.5,18.7,3.5,15.5,3.7Z"/><path d="M64.9,38.2C64.9,17,83.7,0,102.5,0s37.8,17,37.8,38.2-19,38-37.8,38S64.9,59.4,64.9,38.2Zm62.7,0c0-20.6-7.8-36.2-25.1-36.2S77.6,17.6,77.6,38.2s7.7,36,24.9,36S127.6,58.9,127.6,38.2Z"/><path d="M195.7,21l-.9.3C188,6.5,181,2,174.1,2s-10.9,4.4-10.9,11.2c0,9.5,8.4,13.4,17.3,17.8,9.8,4.8,20.1,10.1,20.1,23.9,0,15-12,21.3-26.2,21.3a59.48,59.48,0,0,1-20.6-3.9l-2-18.5.8-.3c7.8,14.4,15.5,20.7,24.6,20.7s13.5-6.4,13.5-13.7c0-9.5-7.3-14.3-15.5-18.3-10.4-5.1-20.9-10.1-20.9-23.1C154.3,5.3,165.4,0,177.4,0a48.72,48.72,0,0,1,16.3,2.9Z"/><path d="M254.1,74.7H234.6v-.2c3.2-6.2,4-9.7,4-17.9V3.2l-10.9.4c-4.4.2-11.7,11.6-16.9,18.8l-.8-.3,3.8-20.6h61.1l3.8,20.6-.8.3C272.7,15.2,265.4,3.8,261,3.6l-10.9-.4V56.6c0,8.3.7,11.7,4,17.9Z"/><path d="M343.7,74.7H292.5v-.2c2.6-6.1,3.9-10,3.9-16.7V18.4c0-6.8-1.3-10.6-3.9-16.7V1.5h46.2l3.9,17.8-.8.3c-5.3-5.5-12.5-15.7-16.9-15.9L308,3V36.8h8.6c4.8,0,9-6.7,12.4-10.5h.9V48.9H329c-3.3-3.5-7.5-10.1-12.4-10.1H308V73.2l17.8-.7c8.2-.4,15.8-10.1,21.5-17.9l.8.3Z"/><path d="M362,74.5c3.2-6.2,4-9.7,4-17.9v-37c0-8.3-.8-11.7-4-17.9V1.5h25.5c18.1,0,25.3,7,25.3,17.5,0,8.3-4.5,15.3-14.5,18.5l11.9,23.3c4.3,8.4,6.4,10.6,11.6,13.2v.7H404.2l-18-35.3h-8.7V56.6c0,8.3.7,11.7,4,17.9v.2H362ZM377.5,3.6V37.4h7.8c12.6,0,15.8-8.7,15.8-18.5,0-9.1-3.6-15.4-15.8-15.4C384,3.5,381.4,3.5,377.5,3.6Z"/><path d="M471.7,74.7H452.2v-.2c3.2-6.2,4-9.7,4-17.9V3.2l-10.9.4c-4.4.2-11.7,11.6-16.9,18.8l-.8-.3,3.8-20.6h61.1l3.81,20.6-.8.3C490.3,15.2,483,3.8,478.6,3.6l-10.9-.4V56.6c0,8.3.7,11.7,4,17.9Z"/><path d="M506.7,38.2C506.7,17,525.5,0,544.3,0s37.81,17,37.81,38.2-19,38-37.81,38S506.7,59.4,506.7,38.2Zm62.71,0C569.41,17.6,561.6,2,544.3,2s-24.9,15.6-24.9,36.2,7.7,36,24.9,36,25.11-15.3,25.11-36Z"/><path d="M604,12l.4,42.8c0,9,1.3,12.7,6.9,19.7v.2H595.9v-.2c5-7,6.1-10.7,6.1-19.7V15.6c-.4-6.5-2.2-9.5-7.8-13.9V1.5h16l41.9,56.9-.3-37c-.1-9-1.3-12.7-6.1-19.7V1.5h14.4v.2c-4.8,7-6.1,10.7-6.1,19.7V74.7l-3.6.3Z"/></svg>